<svg width="30" height="30" viewBox="0 0 30 30" fill="none" xmlns="http://www.w3.org/2000/svg">
<path d="M29.5479 18.6286C27.5445 26.6644 19.4055 31.5548 11.3688 29.5509C3.33542 27.5476 -1.55501 19.4081 0.449228 11.373C2.45171 3.33629 10.5907 -1.55451 18.6249 0.448851C26.6611 2.45221 31.5512 10.5926 29.5476 18.6287L29.5478 18.6286H29.5479Z" fill="#F3BA2F"/>
<path fill-rule="evenodd" clip-rule="evenodd" d="M15 9.52L11.1158 13.4042L11.1159 13.404L8.85599 11.144L15 5L21.146 11.1458L18.886 13.4058L15 9.52ZM7.26008 12.7396L5 15L7.25992 17.2596L9.52 14.9995L7.26008 12.7396ZM11.1159 16.5961L15 20.48L18.8859 16.5942L21.1471 18.853L21.146 18.8542L15 25L8.85601 18.856L8.85281 18.8528L11.1159 16.5961ZM22.7401 12.7409L20.48 15.001L22.74 17.2609L25 15.0008L22.7401 12.7409Z" fill="white"/>
<path d="M17.2922 14.9988H17.2932L15 12.7056L13.3051 14.4L13.1104 14.5948L12.7088 14.9965L12.7056 14.9996L12.7088 15.0029L15 17.2945L17.2933 15.0012L17.2944 15L17.2924 14.9988" fill="white"/>
</svg>
