<svg width="24" height="24" viewBox="0 0 24 24" fill="none" xmlns="http://www.w3.org/2000/svg">
<path d="M4.98728 11.4073C4.98731 11.2731 5.01379 11.1402 5.06522 11.0162C5.11664 10.8923 5.19199 10.7798 5.28694 10.6851C5.38189 10.5905 5.49457 10.5155 5.6185 10.4646C5.74244 10.4137 5.8752 10.3878 6.00915 10.3884L7.70329 10.394C7.97342 10.394 8.23248 10.5015 8.42348 10.6928C8.61449 10.8842 8.7218 11.1438 8.7218 11.4144V17.8329C8.91261 17.7762 9.1568 17.7158 9.42552 17.6524C9.61168 17.6085 9.7776 17.5029 9.89636 17.3527C10.0151 17.2025 10.0798 17.0165 10.0798 16.8249V8.86384C10.0798 8.59319 10.1871 8.33362 10.3781 8.14222C10.5691 7.95083 10.8282 7.84327 11.0983 7.84322H12.7976C13.0677 7.84327 13.3268 7.95083 13.5178 8.14222C13.7088 8.33362 13.8161 8.59319 13.8161 8.86384V16.253C13.8161 16.253 14.2412 16.0807 14.6551 15.9055C14.8088 15.8404 14.9401 15.7313 15.0324 15.5919C15.1247 15.4525 15.174 15.2889 15.1741 15.1217V6.31269C15.1741 6.0421 15.2814 5.78258 15.4724 5.59122C15.6633 5.39986 15.9223 5.29233 16.1924 5.29227H17.8899C18.1599 5.29254 18.4187 5.40016 18.6095 5.5915C18.8003 5.78284 18.9074 6.04223 18.9074 6.31269V13.5666C20.3791 12.498 21.8706 11.2127 23.0542 9.66733C23.2259 9.44301 23.3396 9.17959 23.385 8.90057C23.4304 8.62156 23.4061 8.33562 23.3144 8.06826C22.7665 6.48903 21.8956 5.04177 20.7574 3.81911C19.6192 2.59644 18.2388 1.6253 16.7044 0.967809C15.1701 0.310323 13.5157 -0.0190231 11.847 0.00084856C10.1784 0.0207202 8.53221 0.389371 7.01392 1.08321C5.49562 1.77705 4.13862 2.7808 3.02974 4.03022C1.92086 5.27965 1.08452 6.74723 0.574252 8.33907C0.063981 9.93091 -0.108988 11.6119 0.0664114 13.2746C0.241811 14.9373 0.761718 16.5449 1.59286 17.9947C1.73766 18.2448 1.95071 18.4483 2.20695 18.5813C2.4632 18.7143 2.75201 18.7713 3.03945 18.7455C3.36056 18.7172 3.76037 18.6772 4.23571 18.6213C4.44259 18.5977 4.63359 18.4987 4.77233 18.3432C4.91107 18.1876 4.98786 17.9864 4.98807 17.7778V11.4073" fill="white"/>
<path d="M4.95105 21.7007C6.74034 23.0049 8.85486 23.7877 11.0606 23.9625C13.2664 24.1374 15.4775 23.6974 17.4492 22.6915C19.421 21.6855 21.0765 20.1526 22.2326 18.2624C23.3888 16.3723 24.0005 14.1985 24.0001 11.9817C24.0001 11.7044 23.9872 11.4314 23.9689 11.1592C19.5866 17.7074 11.4951 20.7687 4.95105 21.7007Z" fill="#F0B90B"/>
</svg>
