<svg width="48" height="48" viewBox="0 0 48 48" fill="none" xmlns="http://www.w3.org/2000/svg">
<circle cx="24" cy="24" r="24" fill="white" fill-opacity="0.1"/>
<path d="M11.6499 23.61C18.0923 20.7875 22.3883 18.9268 24.5378 18.0278C30.675 15.4609 31.9503 15.015 32.7815 15.0001C32.9643 14.9971 33.3731 15.0426 33.6379 15.2587C33.8614 15.4411 33.9229 15.6875 33.9524 15.8605C33.9818 16.0334 34.0185 16.4274 33.9893 16.7353C33.6567 20.2491 32.2177 28.7763 31.4856 32.7118C31.1758 34.3771 30.5658 34.9354 29.9753 34.9901C28.6919 35.1088 27.7174 34.1373 26.4744 33.3179C24.5294 32.0359 23.4305 31.2378 21.5425 29.9867C19.3606 28.5409 20.7751 27.7462 22.0185 26.4476C22.344 26.1077 27.9985 20.9359 28.1079 20.4668C28.1216 20.4081 28.1343 20.1894 28.0051 20.0739C27.8759 19.9584 27.6851 19.9979 27.5475 20.0293C27.3524 20.0738 24.2452 22.139 18.2258 26.2248C17.3439 26.8338 16.545 27.1305 15.8292 27.1149C15.0402 27.0978 13.5223 26.6663 12.394 26.2975C11.01 25.8451 9.91003 25.606 10.0058 24.8377C10.0557 24.4375 10.6037 24.0283 11.6499 23.61Z" fill="#0088CC"/>
</svg>
