<svg width="24" height="24" viewBox="0 0 24 24" fill="none" xmlns="http://www.w3.org/2000/svg">
<path d="M21.7901 20.76L21.0701 20.04C21.4401 19.48 21.6601 18.8 21.6601 18.08C21.6601 16.1 20.0601 14.5 18.0801 14.5C16.1001 14.5 14.5001 16.1 14.5001 18.08C14.5001 20.06 16.1001 21.66 18.0801 21.66C18.8101 21.66 19.4801 21.44 20.0401 21.07L20.7601 21.79C20.9001 21.93 21.0901 22 21.2701 22C21.4601 22 21.6401 21.93 21.7801 21.79C22.0701 21.5 22.0701 21.04 21.7901 20.76Z" fill="white"/>
<path opacity="0.4" d="M2.03014 14.6299C2.03014 14.6599 2.01013 14.6999 2.01013 14.7299C2.93013 16.5699 4.43014 18.0799 6.27014 18.9899C6.30014 18.9899 6.34013 18.9699 6.37013 18.9699C6.03013 17.8099 5.77014 16.6199 5.58014 15.4299C4.38014 15.2299 3.19014 14.9699 2.03014 14.6299Z" fill="white"/>
<path opacity="0.4" d="M19.0701 6.42993C18.1301 4.45993 16.5401 2.86994 14.5801 1.93994C14.9401 3.12994 15.2401 4.34995 15.4401 5.56995C16.6601 5.76995 17.8801 6.05993 19.0701 6.42993Z" fill="white"/>
<path opacity="0.4" d="M1.93011 6.43002C3.13011 6.07002 4.35013 5.77004 5.57013 5.57004C5.77013 4.38004 6.02012 3.20004 6.36012 2.04004C6.33012 2.04004 6.29012 2.02002 6.26012 2.02002C4.38012 2.95002 2.85011 4.52002 1.93011 6.43002Z" fill="white"/>
<path opacity="0.4" d="M13.8201 5.35999C13.5801 4.05999 13.2801 2.76 12.8501 1.5C12.8301 1.43 12.8301 1.37001 12.8201 1.29001C12.0801 1.11001 11.3001 0.98999 10.5001 0.98999C9.69012 0.98999 8.92012 1.10001 8.17012 1.29001C8.16012 1.36001 8.17012 1.42 8.15012 1.5C7.73012 2.76 7.42011 4.05999 7.18011 5.35999C9.39011 5.11999 11.6101 5.11999 13.8201 5.35999Z" fill="white"/>
<path opacity="0.4" d="M5.36011 7.17993C4.05011 7.41993 2.76011 7.71993 1.50011 8.14993C1.43011 8.16993 1.3701 8.16993 1.2901 8.17993C1.1101 8.91993 0.990112 9.69994 0.990112 10.4999C0.990112 11.3099 1.1001 12.0799 1.2901 12.8299C1.3601 12.8399 1.42011 12.8299 1.50011 12.8499C2.76011 13.2699 4.05011 13.5799 5.36011 13.8199C5.12011 11.6099 5.12011 9.38993 5.36011 7.17993Z" fill="white"/>
<path opacity="0.4" d="M19.7001 8.17993C19.6301 8.17993 19.5701 8.16993 19.4901 8.14993C18.2301 7.72993 16.9301 7.41993 15.6301 7.17993C15.8801 9.38993 15.8801 11.6099 15.6301 13.8099C16.9301 13.5699 18.2301 13.2699 19.4901 12.8399C19.5601 12.8199 19.6201 12.8299 19.7001 12.8199C19.8801 12.0699 20.0001 11.2999 20.0001 10.4899C20.0001 9.69993 19.8901 8.92993 19.7001 8.17993Z" fill="white"/>
<path opacity="0.4" d="M7.18011 15.6401C7.42011 16.9501 7.72012 18.2401 8.15012 19.5001C8.17012 19.5701 8.16012 19.6301 8.17012 19.7101C8.92012 19.8901 9.69012 20.0101 10.5001 20.0101C11.3001 20.0101 12.0801 19.9001 12.8201 19.7101C12.8301 19.6401 12.8301 19.5801 12.8501 19.5001C13.2701 18.2401 13.5801 16.9501 13.8201 15.6401C12.7201 15.7601 11.6101 15.8501 10.5001 15.8501C9.39012 15.8401 8.28011 15.7601 7.18011 15.6401Z" fill="white"/>
<path opacity="0.4" d="M6.9501 6.9501C6.6501 9.3101 6.6501 11.6901 6.9501 14.0601C9.3101 14.3601 11.6901 14.3601 14.0601 14.0601C14.3601 11.7001 14.3601 9.3201 14.0601 6.9501C11.6901 6.6501 9.3101 6.6501 6.9501 6.9501Z" fill="white"/>
</svg>
