<svg width="25" height="24" viewBox="0 0 25 24" fill="none" xmlns="http://www.w3.org/2000/svg">
<path d="M22.2902 20.76L21.5703 20.04C21.9403 19.48 22.1602 18.8 22.1602 18.08C22.1602 16.1 20.5602 14.5 18.5802 14.5C16.6002 14.5 15.0002 16.1 15.0002 18.08C15.0002 20.06 16.6002 21.66 18.5802 21.66C19.3102 21.66 19.9802 21.44 20.5402 21.07L21.2602 21.79C21.4002 21.93 21.5902 22 21.7702 22C21.9602 22 22.1402 21.93 22.2802 21.79C22.5702 21.5 22.5702 21.04 22.2902 20.76Z" fill="#14A38B"/>
<path opacity="0.4" d="M2.53026 14.6299C2.53026 14.6599 2.51025 14.6999 2.51025 14.7299C3.43025 16.5699 4.93026 18.0799 6.77026 18.9899C6.80026 18.9899 6.84025 18.9699 6.87025 18.9699C6.53025 17.8099 6.27026 16.6199 6.08026 15.4299C4.88026 15.2299 3.69026 14.9699 2.53026 14.6299Z" fill="#14A38B"/>
<path opacity="0.4" d="M19.5703 6.42993C18.6303 4.45993 17.0403 2.86994 15.0803 1.93994C15.4403 3.12994 15.7403 4.34995 15.9403 5.56995C17.1603 5.76995 18.3803 6.05993 19.5703 6.42993Z" fill="#14A38B"/>
<path opacity="0.4" d="M2.43018 6.43002C3.63018 6.07002 4.85019 5.77004 6.07019 5.57004C6.27019 4.38004 6.52018 3.20004 6.86018 2.04004C6.83018 2.04004 6.79018 2.02002 6.76018 2.02002C4.88018 2.95002 3.35018 4.52002 2.43018 6.43002Z" fill="#14A38B"/>
<path opacity="0.4" d="M14.3202 5.35999C14.0802 4.05999 13.7802 2.76 13.3502 1.5C13.3302 1.43 13.3302 1.37001 13.3202 1.29001C12.5802 1.11001 11.8002 0.98999 11.0002 0.98999C10.1902 0.98999 9.42018 1.10001 8.67018 1.29001C8.66018 1.36001 8.67018 1.42 8.65018 1.5C8.23018 2.76 7.92018 4.05999 7.68018 5.35999C9.89018 5.11999 12.1102 5.11999 14.3202 5.35999Z" fill="#14A38B"/>
<path opacity="0.4" d="M5.86023 7.17993C4.55023 7.41993 3.26023 7.71993 2.00023 8.14993C1.93023 8.16993 1.87022 8.16993 1.79022 8.17993C1.61022 8.91993 1.49023 9.69994 1.49023 10.4999C1.49023 11.3099 1.60022 12.0799 1.79022 12.8299C1.86022 12.8399 1.92023 12.8299 2.00023 12.8499C3.26023 13.2699 4.55023 13.5799 5.86023 13.8199C5.62023 11.6099 5.62023 9.38993 5.86023 7.17993Z" fill="#14A38B"/>
<path opacity="0.4" d="M20.2004 8.17993C20.1304 8.17993 20.0704 8.16993 19.9904 8.14993C18.7304 7.72993 17.4304 7.41993 16.1304 7.17993C16.3804 9.38993 16.3804 11.6099 16.1304 13.8099C17.4304 13.5699 18.7304 13.2699 19.9904 12.8399C20.0604 12.8199 20.1204 12.8299 20.2004 12.8199C20.3804 12.0699 20.5004 11.2999 20.5004 10.4899C20.5004 9.69993 20.3904 8.92993 20.2004 8.17993Z" fill="#14A38B"/>
<path opacity="0.4" d="M7.68018 15.6401C7.92018 16.9501 8.22018 18.2401 8.65018 19.5001C8.67018 19.5701 8.66018 19.6301 8.67018 19.7101C9.42018 19.8901 10.1902 20.0101 11.0002 20.0101C11.8002 20.0101 12.5802 19.9001 13.3202 19.7101C13.3302 19.6401 13.3302 19.5801 13.3502 19.5001C13.7702 18.2401 14.0802 16.9501 14.3202 15.6401C13.2202 15.7601 12.1102 15.8501 11.0002 15.8501C9.89018 15.8401 8.78018 15.7601 7.68018 15.6401Z" fill="#14A38B"/>
<path opacity="0.4" d="M7.45034 6.9501C7.15034 9.3101 7.15034 11.6901 7.45034 14.0601C9.81034 14.3601 12.1903 14.3601 14.5603 14.0601C14.8603 11.7001 14.8603 9.3201 14.5603 6.9501C12.1903 6.6501 9.81034 6.6501 7.45034 6.9501Z" fill="#14A38B"/>
</svg>
