<svg width="187" height="57" viewBox="0 0 187 57" fill="none" xmlns="http://www.w3.org/2000/svg">
<path d="M49.4754 14.5549C45.9304 10.9962 41.3895 8.60453 36.4567 7.69812C36.2637 9.15062 35.7014 10.5289 34.8239 11.7003C33.9464 12.8716 32.7832 13.7968 31.4462 14.3867V19.5609L54.5068 42.5712C56.6252 37.9457 57.2786 32.7796 56.3789 27.7699C55.4792 22.7601 53.0697 18.1477 49.4754 14.5549ZM15.807 29.0258C15.1333 30.5237 14.043 31.7947 12.6672 32.6864C11.2913 33.5781 9.68822 34.0525 8.05027 34.0527C7.77813 34.0737 7.5048 34.0737 7.23267 34.0527C7.5478 38.0407 8.81747 41.8934 10.9339 45.2838C13.0503 48.6742 15.9509 51.5022 19.3894 53.5275C22.828 55.5528 26.7029 56.7157 30.6851 56.9175C34.6674 57.1192 38.6393 56.3538 42.2637 54.6863L16.6246 29.0258H15.807Z" fill="#ED1C24"/>
<path d="M16.1214 8.16085C16.1195 6.56071 15.645 4.99701 14.758 3.66716C13.871 2.33731 12.6112 1.30093 11.1376 0.688841C9.66401 0.0767562 8.0427 -0.0835895 6.47834 0.228046C4.91399 0.539681 3.47673 1.30933 2.34799 2.43982C0.847539 3.96343 0.00610352 6.01899 0.00610352 8.16085C0.00610352 10.3027 0.847539 12.3583 2.34799 13.8819C3.66843 15.2205 5.4136 16.054 7.2817 16.2383C9.14981 16.4227 11.0234 15.9463 12.5785 14.8915L48.3223 50.7952C48.7206 50.4586 49.098 50.1011 49.4753 49.7225C49.8527 49.3439 50.2091 48.9653 50.5445 48.5657L14.6749 12.6199C15.5849 11.3092 16.0881 9.75781 16.1214 8.16085ZM11.5303 11.6524C10.6101 12.5756 9.36205 13.0942 8.06071 13.0942C6.75938 13.0942 5.51134 12.5756 4.59115 11.6524C3.67097 10.7291 3.15401 9.477 3.15401 8.17137C3.15401 6.86574 3.67097 5.61359 4.59115 4.69037C5.04529 4.23059 5.58572 3.86563 6.18123 3.61656C6.77674 3.3675 7.41553 3.23926 8.06071 3.23926C8.7059 3.23926 9.34469 3.3675 9.9402 3.61656C10.5357 3.86563 11.0761 4.23059 11.5303 4.69037C11.9886 5.14601 12.3523 5.68822 12.6006 6.2857C12.8488 6.88317 12.9766 7.52406 12.9766 8.17137C12.9766 8.81868 12.8488 9.45957 12.6006 10.057C12.3523 10.6545 11.9886 11.1967 11.5303 11.6524ZM29.5804 20.3601V13.0195C31.1425 12.634 32.5099 11.6879 33.4242 10.3599C34.3386 9.03196 34.7365 7.41403 34.543 5.81174C34.3495 4.20945 33.5778 2.73373 32.3738 1.66329C31.1698 0.592863 29.6168 0.00183105 28.0081 0.00183105C26.3994 0.00183105 24.8463 0.592863 23.6423 1.66329C22.4383 2.73373 21.6667 4.20945 21.4732 5.81174C21.2796 7.41403 21.6776 9.03196 22.5919 10.3599C23.5063 11.6879 24.8736 12.634 26.4358 13.0195V21.6642L51.7604 47.0723C52.4052 46.2143 52.9934 45.3149 53.5214 44.38L29.5804 20.3601ZM24.57 6.6044C24.57 5.92216 24.7716 5.25525 25.1494 4.68799C25.5272 4.12073 26.0641 3.6786 26.6924 3.41752C27.3206 3.15644 28.0119 3.08813 28.6788 3.22123C29.3458 3.35433 29.9584 3.68286 30.4392 4.16527C30.92 4.64768 31.2475 5.26232 31.3801 5.93144C31.5128 6.60057 31.4447 7.29414 31.1845 7.92444C30.9243 8.55475 30.4836 9.09348 29.9182 9.47251C29.3528 9.85154 28.6881 10.0538 28.0081 10.0538C27.0979 10.0483 26.2266 9.68313 25.583 9.03743C24.9395 8.39172 24.5755 7.51754 24.57 6.6044ZM14.4443 23.9358C14.0599 22.3627 13.1146 20.9854 11.787 20.0642C10.4593 19.1429 8.84126 18.7414 7.23863 18.9356C5.636 19.1298 4.15978 19.9063 3.08894 21.1182C2.01809 22.3302 1.4268 23.8937 1.4268 25.5133C1.4268 27.1329 2.01809 28.6964 3.08894 29.9083C4.15978 31.1203 5.636 31.8967 7.23863 32.0909C8.84126 32.2851 10.4593 31.8836 11.787 30.9624C13.1146 30.0411 14.0599 28.6638 14.4443 27.0907H17.4212L44.0247 53.824C44.9646 53.3043 45.8682 52.7211 46.729 52.0782L18.721 23.9358H14.4443ZM8.15505 28.9627C7.47506 28.9627 6.81033 28.7604 6.24494 28.3814C5.67954 28.0023 5.23887 27.4636 4.97865 26.8333C4.71842 26.203 4.65034 25.5094 4.783 24.8403C4.91566 24.1712 5.24311 23.5565 5.72394 23.0741C6.20477 22.5917 6.81738 22.2632 7.48431 22.1301C8.15124 21.997 8.84253 22.0653 9.47076 22.3264C10.099 22.5875 10.636 23.0296 11.0137 23.5968C11.3915 24.1641 11.5932 24.831 11.5932 25.5133C11.5934 25.9752 11.5011 26.4325 11.3218 26.8581C11.1425 27.2836 10.8798 27.6686 10.5494 27.9903C10.219 28.3121 9.82746 28.5639 9.39816 28.7309C8.96885 28.898 8.51048 28.9768 8.05023 28.9627H8.15505Z" fill="#ED1C24"/>
<path d="M160.983 19.5188H155.721V35.9037H160.983V19.5188Z" fill="white"/>
<path d="M75.0936 36.0088H64.7583V9.90662H75.0727C78.4323 10.042 81.6095 11.4762 83.9388 13.9089C86.2682 16.3417 87.5691 19.5843 87.5691 22.9577C87.5691 26.3311 86.2682 29.5738 83.9388 32.0065C81.6095 34.4393 78.4323 35.8735 75.0727 36.0088H75.0936ZM70.0413 30.7295H75.0936C77.1453 30.7295 79.1129 29.9118 80.5636 28.4563C82.0144 27.0008 82.8294 25.0266 82.8294 22.9682C82.8294 20.9098 82.0144 18.9357 80.5636 17.4802C79.1129 16.0247 77.1453 15.207 75.0936 15.207H70.0413V30.7295Z" fill="white"/>
<path d="M106.141 36.5136C103.471 36.5136 100.861 35.7192 98.6406 34.2308C96.4204 32.7424 94.6899 30.6269 93.6681 28.1518C92.6462 25.6767 92.3789 22.9532 92.8998 20.3257C93.4207 17.6981 94.7066 15.2846 96.5947 13.3902C98.4828 11.4959 100.888 10.2058 103.507 9.68313C106.126 9.16048 108.841 9.42872 111.308 10.4539C113.775 11.4792 115.883 13.2153 117.367 15.4428C118.85 17.6704 119.642 20.2892 119.642 22.9682C119.645 24.7478 119.298 26.5105 118.62 28.1551C117.943 29.7998 116.948 31.2941 115.694 32.5525C114.44 33.8108 112.95 34.8085 111.311 35.4882C109.672 36.1679 107.915 36.5164 106.141 36.5136ZM106.141 14.7232C104.516 14.7232 102.927 15.2068 101.576 16.1128C100.224 17.0187 99.1709 18.3064 98.5489 19.813C97.9269 21.3196 97.7642 22.9774 98.0812 24.5768C98.3983 26.1761 99.181 27.6453 100.33 28.7984C101.48 29.9514 102.944 30.7367 104.538 31.0548C106.132 31.373 107.785 31.2097 109.286 30.5856C110.788 29.9616 112.071 28.9048 112.974 27.5489C113.877 26.193 114.359 24.599 114.359 22.9682C114.354 20.7832 113.486 18.6893 111.946 17.1443C110.406 15.5992 108.319 14.7288 106.141 14.7232Z" fill="white"/>
<path d="M137.671 36.5136C135 36.5136 132.389 35.7187 130.168 34.2294C127.948 32.74 126.217 30.6233 125.196 28.147C124.175 25.6706 123.909 22.946 124.431 20.3179C124.954 17.6898 126.242 15.2763 128.132 13.3828C130.022 11.4893 132.43 10.2008 135.05 9.68057C137.671 9.16029 140.386 9.43154 142.852 10.46C145.319 11.4884 147.426 13.2278 148.907 15.4581C150.388 17.6884 151.176 20.3094 151.172 22.9893C151.167 26.5781 149.742 30.018 147.21 32.5537C144.679 35.0894 141.248 36.5136 137.671 36.5136ZM137.692 14.7232C136.062 14.7191 134.467 15.2003 133.109 16.1061C131.752 17.0118 130.692 18.3013 130.066 19.8114C129.439 21.3214 129.273 22.9841 129.588 24.589C129.904 26.1938 130.687 27.6686 131.838 28.8268C132.989 29.9849 134.457 30.7743 136.056 31.0949C137.655 31.4156 139.313 31.2531 140.819 30.6281C142.326 30.0031 143.614 28.9436 144.52 27.5838C145.426 26.224 145.91 24.625 145.91 22.9893C145.91 20.8006 145.045 18.7013 143.505 17.1517C141.964 15.6021 139.874 14.7288 137.692 14.7232Z" fill="white"/>
<path d="M187 9.94873H165.554V15.2281H173.646V36.0299H178.908V15.2281H187V9.94873Z" fill="white"/>
<path d="M154.925 12.6199C154.925 11.9376 155.126 11.2707 155.504 10.7034C155.882 10.1362 156.419 9.69407 157.047 9.43299C157.675 9.17191 158.367 9.10359 159.034 9.23669C159.701 9.36979 160.313 9.69832 160.794 10.1807C161.275 10.6631 161.602 11.2778 161.735 11.9469C161.868 12.616 161.8 13.3096 161.539 13.9399C161.279 14.5702 160.838 15.1089 160.273 15.488C159.708 15.867 159.043 16.0693 158.363 16.0693C157.451 16.0693 156.577 15.7059 155.932 15.059C155.287 14.4121 154.925 13.5347 154.925 12.6199Z" fill="#ED1C24"/>
<path d="M73.3746 43.4336H66.0371V47.6402H72.5989V48.8812H66.121V53.0878H73.5423V54.3288H64.7583V42.1926H73.3746V43.4336Z" fill="#ED1C24"/>
<path d="M88.0494 54.3498L84.2129 49.1126L80.3555 54.3498H78.8042L83.4163 48.145L78.9719 42.1926H80.5652L84.2549 47.1565L87.9236 42.1926H89.4959L85.0515 48.124L89.6636 54.434L88.0494 54.3498Z" fill="#ED1C24"/>
<path d="M104.066 53.2982C103.726 53.5591 103.361 53.7847 102.976 53.9712C102.576 54.1645 102.153 54.3059 101.718 54.3919C101.23 54.5057 100.731 54.5622 100.23 54.5602C99.4014 54.5665 98.5807 54.4019 97.8187 54.0764C97.1082 53.7539 96.4619 53.305 95.911 52.7513C94.812 51.5605 94.1985 49.9993 94.1919 48.3764C94.1952 47.5348 94.3515 46.7009 94.6531 45.9155C94.9516 45.1803 95.3775 44.5038 95.911 43.9174C96.4752 43.329 97.1526 42.8616 97.9021 42.5435C98.6516 42.2253 99.4577 42.063 100.271 42.0664C100.772 42.0559 101.271 42.1054 101.76 42.2137C102.185 42.2922 102.6 42.4193 102.997 42.5923C103.364 42.7624 103.715 42.9666 104.045 43.2022C104.372 43.445 104.68 43.7122 104.967 44.0015L104.045 45.0111C103.557 44.5295 102.998 44.1252 102.389 43.8122C101.794 43.5144 101.144 43.3438 100.48 43.3112C99.816 43.2786 99.1525 43.3848 98.5315 43.6229C97.9673 43.8744 97.4607 44.2395 97.043 44.6956C96.624 45.1587 96.2904 45.6928 96.0577 46.2731C95.8277 46.9064 95.714 47.5762 95.7223 48.2502C95.7121 48.9243 95.8258 49.5945 96.0577 50.2273C96.2853 50.8165 96.6193 51.3584 97.043 51.8259C97.4543 52.2892 97.9625 52.6555 98.5315 52.8985C99.1082 53.1707 99.7391 53.3074 100.376 53.2982C101.101 53.3076 101.819 53.1493 102.473 52.8354C103.12 52.49 103.714 52.0505 104.234 51.5314L105.114 52.4148C104.792 52.7408 104.442 53.0365 104.066 53.2982Z" fill="#ED1C24"/>
<path d="M112.2 48.8812V54.3498H110.837V42.1926H112.2V47.5982H119.139V42.1926H120.502V54.3498H119.139V48.8812H112.2Z" fill="#ED1C24"/>
<path d="M138.531 54.3498H137.063L135.659 51.1317H129.118L127.692 54.3498H126.288L131.78 42.0664H133.038L138.531 54.3498ZM132.388 43.728L129.642 49.9118H135.114L132.388 43.728Z" fill="#ED1C24"/>
<path d="M153.164 42.1926H154.485V54.3498H153.416L145.638 44.3801V54.3498H144.317V42.1926H145.596L153.164 51.931V42.1926Z" fill="#ED1C24"/>
<path d="M169.663 54.0133C168.795 54.3838 167.86 54.57 166.917 54.5602C166.04 54.5724 165.171 54.4079 164.359 54.0764C163.634 53.7592 162.979 53.3018 162.43 52.7303C161.891 52.1562 161.477 51.4757 161.214 50.7321C160.944 49.976 160.802 49.1797 160.795 48.3764C160.791 47.5566 160.941 46.7433 161.235 45.9786C161.501 45.2051 161.914 44.4907 162.451 43.8753C163 43.3022 163.646 42.8321 164.359 42.4871C165.137 42.1714 165.973 42.0279 166.812 42.0664C167.275 42.0668 167.737 42.102 168.195 42.1716C168.598 42.2292 168.992 42.3351 169.369 42.4871C169.721 42.6213 170.058 42.7904 170.376 42.9919C170.697 43.2046 171.005 43.4363 171.298 43.686L170.418 44.7166C170.232 44.5165 170.028 44.3335 169.81 44.1698C169.551 43.9978 169.277 43.8499 168.992 43.7281C168.68 43.6021 168.357 43.5035 168.028 43.4336C167.647 43.3631 167.261 43.3278 166.875 43.3284C166.238 43.3289 165.61 43.4651 165.03 43.7281C163.901 44.2209 163.007 45.133 162.535 46.2731C162.315 46.9018 162.202 47.5629 162.2 48.2292C162.181 48.945 162.295 49.6581 162.535 50.3325C162.743 50.9217 163.064 51.4646 163.478 51.931C163.898 52.3943 164.413 52.7603 164.988 53.0037C165.612 53.2642 166.283 53.3931 166.958 53.3823C168.214 53.3704 169.431 52.9414 170.418 52.1624V49.0915H166.77V47.8716H171.738V52.7092C171.119 53.2512 170.419 53.6913 169.663 54.0133Z" fill="#ED1C24"/>
<path d="M186.916 43.4336H179.579V47.6402H186.14V48.8812H179.579V53.0878H187V54.3288H178.195V42.1926H186.895L186.916 43.4336Z" fill="#ED1C24"/>
</svg>
