<svg width="24" height="24" viewBox="0 0 24 24" fill="none" xmlns="http://www.w3.org/2000/svg">
<path opacity="0.4" d="M18.35 19.68C17.8 21.09 16.46 22 14.95 22H9.04998C7.52998 22 6.19998 21.09 5.64998 19.68C5.09998 18.26 5.47998 16.69 6.59998 15.67L10.65 12H13.36L17.4 15.67C18.52 16.69 18.89 18.26 18.35 19.68Z" fill="white"/>
<path d="M13.82 18.14H10.18C9.8 18.14 9.5 17.83 9.5 17.46C9.5 17.08 9.81 16.78 10.18 16.78H13.82C14.2 16.78 14.5 17.09 14.5 17.46C14.5 17.83 14.19 18.14 13.82 18.14Z" fill="white"/>
<path d="M18.35 4.32C17.8 2.91 16.46 2 14.95 2H9.04998C7.53998 2 6.19998 2.91 5.64998 4.32C5.10998 5.74 5.47998 7.31 6.60998 8.33L10.65 12H13.36L17.4 8.33C18.52 7.31 18.89 5.74 18.35 4.32ZM13.82 7.23H10.18C9.79998 7.23 9.49998 6.92 9.49998 6.55C9.49998 6.18 9.80998 5.87 10.18 5.87H13.82C14.2 5.87 14.5 6.18 14.5 6.55C14.5 6.92 14.19 7.23 13.82 7.23Z" fill="white"/>
</svg>
