<svg width="24" height="20" viewBox="0 0 24 20" fill="none" xmlns="http://www.w3.org/2000/svg">
<path d="M24 2.37236C23.1174 2.77326 22.1693 3.04414 21.1726 3.16658C22.201 2.53575 22.9704 1.5429 23.3373 0.373289C22.371 0.961624 21.3135 1.37575 20.2107 1.59766C19.4691 0.78596 18.4868 0.247955 17.4164 0.0671694C16.3459 -0.113617 15.2472 0.0729309 14.2907 0.59785C13.3343 1.12277 12.5737 1.95669 12.127 2.97014C11.6803 3.98359 11.5725 5.11988 11.8203 6.20257C9.86244 6.1018 7.94711 5.58015 6.19863 4.67147C4.45016 3.76279 2.90761 2.48739 1.6711 0.928046C1.2483 1.67567 1.0052 2.54248 1.0052 3.46563C1.00473 4.29667 1.20437 5.11499 1.58641 5.84798C1.96846 6.58096 2.52109 7.20594 3.19528 7.66748C2.4134 7.64198 1.64877 7.42541 0.965031 7.03579V7.1008C0.964952 8.26638 1.35827 9.39609 2.07823 10.2982C2.7982 11.2004 3.80048 11.8194 4.915 12.0503C4.18968 12.2515 3.42923 12.2811 2.69109 12.137C3.00555 13.1399 3.61807 14.0169 4.44291 14.6452C5.26776 15.2735 6.26363 15.6217 7.29111 15.641C5.5469 17.0446 3.39282 17.806 1.17537 17.8026C0.782575 17.8027 0.39011 17.7792 0 17.7322C2.25083 19.2157 4.87097 20.003 7.5469 20C16.6053 20 21.5573 12.3092 21.5573 5.63915C21.5573 5.42245 21.552 5.20358 21.5425 4.98687C22.5057 4.27281 23.3372 3.38858 23.9979 2.37562L24 2.37236Z" fill="white" fill-opacity="0.8"/>
</svg>
