<svg width="24" height="24" viewBox="0 0 24 24" fill="none" xmlns="http://www.w3.org/2000/svg">
<path d="M6.54351 5.00041C6.4634 4.91867 6.36796 4.85351 6.26266 4.80867C6.15735 4.76382 6.04425 4.74017 5.9298 4.73905C5.81535 4.73794 5.7018 4.75939 5.59564 4.80217C5.48949 4.84496 5.3928 4.90824 5.31111 4.98841C4.38705 5.9071 3.65405 6.99968 3.15439 8.2031C2.65473 9.40653 2.3983 10.697 2.39991 12C2.39841 13.353 2.67501 14.6919 3.21255 15.9336C3.75009 17.1753 4.53709 18.2932 5.52471 19.218C5.69093 19.3717 5.9105 19.4545 6.1368 19.4489C6.36309 19.4433 6.57829 19.3497 6.73671 19.188C7.11591 18.8088 7.06911 18.2052 6.70431 17.856C5.91171 17.1007 5.28098 16.192 4.85045 15.1853C4.41992 14.1786 4.19859 13.0949 4.19991 12C4.19991 9.78481 5.08911 7.77601 6.53151 6.31441C6.87951 5.96041 6.91551 5.37241 6.54351 5.00041ZM8.65671 7.11601C8.49867 6.95339 8.28261 6.86006 8.05588 6.85646C7.82914 6.85286 7.61023 6.93929 7.44711 7.09681C6.79785 7.73756 6.2825 8.50102 5.93104 9.34279C5.57958 10.1846 5.39904 11.0878 5.39991 12C5.3985 12.9645 5.60002 13.9185 5.99138 14.8001C6.38274 15.6816 6.95518 16.4709 7.67151 17.1168C7.83621 17.2623 8.05058 17.3389 8.27019 17.3306C8.48981 17.3223 8.69782 17.2299 8.85111 17.0724C9.24471 16.6788 9.17151 16.0596 8.80191 15.7116C8.29528 15.2354 7.89172 14.6603 7.61617 14.0219C7.34063 13.3835 7.19895 12.6953 7.19991 12C7.19991 10.62 7.74831 9.36721 8.63991 8.44801C8.98311 8.09521 9.03951 7.49641 8.65671 7.11481V7.11601ZM15.3431 7.11601C15.5012 6.95339 15.7172 6.86006 15.9439 6.85646C16.1707 6.85286 16.3896 6.93929 16.5527 7.09681C17.202 7.73756 17.7173 8.50102 18.0688 9.34279C18.4202 10.1846 18.6008 11.0878 18.5999 12C18.6013 12.9645 18.3998 13.9185 18.0084 14.8001C17.6171 15.6816 17.0446 16.4709 16.3283 17.1168C16.1636 17.2623 15.9492 17.3389 15.7296 17.3306C15.51 17.3223 15.302 17.2299 15.1487 17.0724C14.7551 16.6788 14.8283 16.0596 15.1979 15.7116C15.7045 15.2354 16.1081 14.6603 16.3836 14.0219C16.6592 13.3835 16.8009 12.6953 16.7999 12C16.7999 10.62 16.2515 9.36721 15.3599 8.44801C15.0167 8.09521 14.9603 7.49641 15.3431 7.11481V7.11601ZM17.4563 5.00161C17.5364 4.91987 17.6319 4.85471 17.7372 4.80987C17.8425 4.76502 17.9556 4.74137 18.07 4.74026C18.1845 4.73914 18.298 4.76059 18.4042 4.80337C18.5103 4.84616 18.607 4.90944 18.6887 4.98961C19.6126 5.90816 20.3455 7.00054 20.8452 8.20375C21.3449 9.40696 21.6014 10.6972 21.5999 12C21.6014 13.353 21.3248 14.6919 20.7873 15.9336C20.2497 17.1753 19.4627 18.2932 18.4751 19.218C18.3089 19.3717 18.0893 19.4545 17.863 19.4489C17.6367 19.4433 17.4215 19.3497 17.2631 19.188C16.8839 18.8088 16.9307 18.2052 17.2967 17.856C18.0891 17.1005 18.7196 16.1919 19.1499 15.1852C19.5802 14.1785 19.8014 13.0948 19.7999 12C19.7999 9.78481 18.9107 7.77601 17.4683 6.31441C17.1203 5.96041 17.0843 5.37241 17.4563 5.00041V5.00161ZM11.9999 10.2C11.5225 10.2 11.0647 10.3897 10.7271 10.7272C10.3896 11.0648 10.1999 11.5226 10.1999 12C10.1999 12.4774 10.3896 12.9352 10.7271 13.2728C11.0647 13.6104 11.5225 13.8 11.9999 13.8C12.4773 13.8 12.9351 13.6104 13.2727 13.2728C13.6103 12.9352 13.7999 12.4774 13.7999 12C13.7999 11.5226 13.6103 11.0648 13.2727 10.7272C12.9351 10.3897 12.4773 10.2 11.9999 10.2Z" fill="white"/>
</svg>
