<svg width="30" height="34" viewBox="0 0 30 34" fill="none" xmlns="http://www.w3.org/2000/svg">
<path opacity="0.4" d="M26.3482 12.035C25.5957 12.035 24.5989 12.0184 23.3579 12.0184C20.3313 12.0184 17.8427 9.51337 17.8427 6.45837V1.09837C17.8427 0.676707 17.5044 0.333374 17.0886 0.333374H8.27287C4.15877 0.333374 0.833496 3.71004 0.833496 7.84837V25.8067C0.833496 30.1484 4.3172 33.6667 8.61613 33.6667H21.7423C25.8432 33.6667 29.1668 30.3117 29.1668 26.17V12.785C29.1668 12.3617 28.8302 12.02 28.411 12.0217C27.708 12.0267 26.8614 12.035 26.3482 12.035" fill="white"/>
<path opacity="0.4" d="M21.8073 1.27883C21.309 0.760494 20.439 1.11716 20.439 1.83549V6.23049C20.439 8.07383 21.9573 9.59049 23.799 9.59049C24.9623 9.60383 26.5756 9.60716 27.9456 9.60383C28.6473 9.60216 29.004 8.76383 28.5173 8.25716C26.759 6.42883 23.6106 3.15216 21.8073 1.27883" fill="white"/>
<path d="M20.1757 18.4728C19.6907 18.9545 18.9057 18.9578 18.419 18.4695L15.7707 15.8078V23.8528C15.7707 24.5378 15.214 25.0945 14.529 25.0945C13.844 25.0945 13.289 24.5378 13.289 23.8528V15.8078L10.6374 18.4695C10.154 18.9578 9.36737 18.9545 8.88237 18.4728C8.39737 17.9912 8.39571 17.2045 8.87904 16.7178L13.649 11.9262C13.6507 11.9245 13.6507 11.9245 13.6507 11.9245C13.764 11.8112 13.9007 11.7195 14.0507 11.6578C14.2007 11.5945 14.364 11.5612 14.529 11.5612C14.6957 11.5612 14.859 11.5945 15.009 11.6578C15.1574 11.7195 15.2924 11.8112 15.4057 11.9228C15.4074 11.9245 15.409 11.9245 15.409 11.9262L20.179 16.7178C20.6624 17.2045 20.6624 17.9912 20.1757 18.4728" fill="white"/>
</svg>
