<svg width="24" height="24" viewBox="0 0 24 24" fill="none" xmlns="http://www.w3.org/2000/svg">
<path d="M6 6.1275V15.75C5.99985 16.7021 6.36185 17.6186 7.01256 18.3136C7.66327 19.0086 8.55397 19.43 9.504 19.4925L9.75 19.5H16.371C16.2159 19.9386 15.9287 20.3184 15.5488 20.587C15.169 20.8557 14.7152 20.9999 14.25 21H9C7.80653 21 6.66193 20.5259 5.81802 19.682C4.97411 18.8381 4.5 17.6935 4.5 16.5V8.25C4.49976 7.78451 4.64389 7.3304 4.91254 6.95026C5.18119 6.57012 5.56113 6.28266 6 6.1275ZM17.25 3C17.8467 3 18.419 3.23705 18.841 3.65901C19.2629 4.08097 19.5 4.65326 19.5 5.25V15.75C19.5 16.3467 19.2629 16.919 18.841 17.341C18.419 17.7629 17.8467 18 17.25 18H9.75C9.15326 18 8.58097 17.7629 8.15901 17.341C7.73705 16.919 7.5 16.3467 7.5 15.75V5.25C7.5 4.65326 7.73705 4.08097 8.15901 3.65901C8.58097 3.23705 9.15326 3 9.75 3H17.25ZM17.25 4.5H9.75C9.55109 4.5 9.36032 4.57902 9.21967 4.71967C9.07902 4.86032 9 5.05109 9 5.25V15.75C9 15.9489 9.07902 16.1397 9.21967 16.2803C9.36032 16.421 9.55109 16.5 9.75 16.5H17.25C17.4489 16.5 17.6397 16.421 17.7803 16.2803C17.921 16.1397 18 15.9489 18 15.75V5.25C18 5.05109 17.921 4.86032 17.7803 4.71967C17.6397 4.57902 17.4489 4.5 17.25 4.5Z" fill="white"/>
</svg>
