<svg width="24" height="24" viewBox="0 0 24 24" fill="none" xmlns="http://www.w3.org/2000/svg">
<path opacity="0.4" d="M20.5002 10.19H17.6102C15.2402 10.19 13.3102 8.26 13.3102 5.89V3C13.3102 2.45 12.8602 2 12.3102 2H8.07015C4.99015 2 2.50015 4 2.50015 7.57V16.43C2.50015 20 4.99015 22 8.07015 22H15.9302C19.0102 22 21.5002 20 21.5002 16.43V11.19C21.5002 10.64 21.0502 10.19 20.5002 10.19Z" fill="white"/>
<path d="M15.8001 2.20999C15.3901 1.79999 14.6801 2.07999 14.6801 2.64999V6.13999C14.6801 7.59999 15.9201 8.80999 17.4301 8.80999C18.3801 8.81999 19.7001 8.81999 20.8301 8.81999C21.4001 8.81999 21.7001 8.14999 21.3001 7.74999C19.8601 6.29999 17.2801 3.68999 15.8001 2.20999Z" fill="white"/>
<path d="M13.5002 13.75H7.50015C7.09015 13.75 6.75015 13.41 6.75015 13C6.75015 12.59 7.09015 12.25 7.50015 12.25H13.5002C13.9102 12.25 14.2502 12.59 14.2502 13C14.2502 13.41 13.9102 13.75 13.5002 13.75Z" fill="white"/>
<path d="M11.5002 17.75H7.50015C7.09015 17.75 6.75015 17.41 6.75015 17C6.75015 16.59 7.09015 16.25 7.50015 16.25H11.5002C11.9102 16.25 12.2502 16.59 12.2502 17C12.2502 17.41 11.9102 17.75 11.5002 17.75Z" fill="white"/>
</svg>
